<?xml version="1.0" encoding="UTF-8" standalone="no"?>
<!-- Created with Inkscape (http://www.inkscape.org/) -->

<svg
   width="24"
   height="24"
   viewBox="0 0 6.3500004 6.3500001"
   version="1.1"
   id="svg1"
   xml:space="preserve"
   inkscape:version="1.4 (86a8ad7, 2024-10-11)"
   sodipodi:docname="morpho.svg"
   inkscape:export-filename="morpho.png"
   inkscape:export-xdpi="76.080002"
   inkscape:export-ydpi="76.080002"
   xmlns:inkscape="http://www.inkscape.org/namespaces/inkscape"
   xmlns:sodipodi="http://sodipodi.sourceforge.net/DTD/sodipodi-0.dtd"
   xmlns="http://www.w3.org/2000/svg"
   xmlns:svg="http://www.w3.org/2000/svg"><sodipodi:namedview
     id="namedview1"
     pagecolor="#ffffff"
     bordercolor="#000000"
     borderopacity="0.25"
     inkscape:showpageshadow="2"
     inkscape:pageopacity="0.0"
     inkscape:pagecheckerboard="0"
     inkscape:deskcolor="#d1d1d1"
     inkscape:document-units="mm"
     inkscape:zoom="14.614334"
     inkscape:cx="8.3821816"
     inkscape:cy="12.077184"
     inkscape:window-width="1760"
     inkscape:window-height="927"
     inkscape:window-x="-8"
     inkscape:window-y="-8"
     inkscape:window-maximized="1"
     inkscape:current-layer="layer1" /><defs
     id="defs1" /><g
     inkscape:label="Layer 1"
     inkscape:groupmode="layer"
     id="layer1"
     transform="translate(-32.631451,-98.789691)"><path
       id="path1-4"
       style="fill:#01274c;fill-opacity:1;fill-rule:evenodd;stroke:#01274c;stroke-width:0.0401355;stroke-linecap:round;stroke-opacity:1"
       d="m 38.655087,100.00107 c -2.281551,-0.206832 -2.649576,1.55309 -2.735945,1.71915 l 0.0018,0.40123 c 0.296718,-0.28854 1.512508,-0.45454 1.987666,-0.23974 -0.04978,-0.24092 0.133531,-0.43117 0.257941,-0.63423 -0.170611,-1.02376 0.382234,-0.82209 0.521953,-1.0955 0.01164,-0.0503 0.01852,-0.1006 -0.03346,-0.15091 z m -5.68947,-0.0179 c 2.28155,-0.20684 2.648054,1.57127 2.734431,1.73736 l -0.0018,0.40122 c -0.296727,-0.28853 -1.512518,-0.45454 -1.987675,-0.23973 0.04978,-0.24093 -0.133531,-0.43118 -0.257942,-0.63425 0.17062,-1.02376 -0.382225,-0.82208 -0.521944,-1.09548 -0.03474,-0.077 -0.0018,-0.12388 0.03502,-0.16912 z" /><path
       id="path3"
       style="fill:#015bad;fill-opacity:1;fill-rule:evenodd;stroke:#015bad;stroke-width:0.0401355;stroke-linecap:round;stroke-opacity:1"
       d="m 35.924436,102.27649 -0.0092,0.24884 c 0.354926,1.30373 0.686981,1.36114 1.019632,1.45054 0.124228,-0.006 0.20923,-0.0854 0.288284,-0.176 0.105775,-0.0297 0.258107,-0.085 0.264011,-0.15173 l 0.06068,-0.29436 c 0.429975,-0.35561 0.381446,-0.48009 0.406636,-0.67064 -0.177899,-0.20842 -0.09741,-0.40361 -1.007487,-0.64942 -0.103941,-0.0148 -0.20054,-0.0348 -0.376293,0 -0.215455,0.042 -0.430909,0.0938 -0.646373,0.24277 z m -0.23597,-6.3e-4 0.0092,0.24883 c -0.354926,1.30374 -0.686982,1.36115 -1.019623,1.45054 -0.124237,-0.005 -0.20924,-0.0853 -0.288293,-0.17601 -0.105775,-0.0297 -0.258108,-0.085 -0.26401,-0.15172 l -0.06068,-0.29436 c -0.429965,-0.35561 -0.381446,-0.48009 -0.406636,-0.67064 0.177899,-0.20841 0.09742,-0.4036 1.007495,-0.64941 0.103933,-0.0149 0.200532,-0.0348 0.376285,0 0.215464,0.042 0.430919,0.0938 0.646373,0.24277 z" /></g></svg>
